<svg width="140" height="128" viewBox="0 0 140 128" fill="none" xmlns="http://www.w3.org/2000/svg">
<path d="M60.0909 120V26.9091H79.7727V67.9545H81L114.5 26.9091H138.091L103.545 68.5909L138.5 120H114.955L89.4545 81.7273L79.7727 93.5455V120H60.0909Z" fill="#1BB8C5"/>
<path d="M79.9091 120V26.9091H43.1818C36.1515 26.9091 30.1515 28.1667 25.1818 30.6818C20.1818 33.1667 16.3788 36.697 13.7727 41.2727C11.1364 45.8182 9.81818 51.1667 9.81818 57.3182C9.81818 63.5 11.1515 68.8182 13.8182 73.2727C16.4848 77.697 20.3485 81.0909 25.4091 83.4545C30.4394 85.8182 36.5303 87 43.6818 87H68.2727V71.1818H46.8636C43.1061 71.1818 39.9848 70.6667 37.5 69.6364C35.0151 68.6061 33.1667 67.0606 31.9545 65C30.7121 62.9394 30.0909 60.3788 30.0909 57.3182C30.0909 54.2273 30.7121 51.6212 31.9545 49.5C33.1667 47.3788 35.0303 45.7727 37.5455 44.6818C40.0303 43.5606 43.1667 43 46.9545 43H60.2273V120H79.9091ZM29.6364 77.6364L6.5 120H28.2273L50.8636 77.6364H29.6364Z" fill="#1BB8C5"/>
<rect x="60" y="27" width="20" height="93" fill="#083680"/>
<circle cx="69.5" cy="11.5" r="11.5" fill="#083680"/>
</svg>
